<svg width="121" height="34" viewBox="0 0 121 34" fill="none" xmlns="http://www.w3.org/2000/svg">
<path d="M38.8047 20.3906H43.0176V21H38.0781V12.4688H38.8047V20.3906ZM46.6973 21.1172C46.1582 21.1172 45.6699 20.9844 45.2324 20.7188C44.7988 20.4531 44.4609 20.084 44.2188 19.6113C43.9766 19.1348 43.8555 18.6016 43.8555 18.0117V17.7598C43.8555 17.1504 43.9727 16.6016 44.207 16.1133C44.4453 15.625 44.7754 15.2422 45.1973 14.9648C45.6191 14.6836 46.0762 14.543 46.5684 14.543C47.3379 14.543 47.9473 14.8066 48.3965 15.334C48.8496 15.8574 49.0762 16.5742 49.0762 17.4844V17.877H44.5527V18.0117C44.5527 18.7305 44.7578 19.3301 45.168 19.8105C45.582 20.2871 46.1016 20.5254 46.7266 20.5254C47.1016 20.5254 47.4316 20.457 47.7168 20.3203C48.0059 20.1836 48.2676 19.9648 48.502 19.6641L48.9414 19.998C48.4258 20.7441 47.6777 21.1172 46.6973 21.1172ZM46.5684 15.1406C46.041 15.1406 45.5957 15.334 45.2324 15.7207C44.873 16.1074 44.6543 16.627 44.5762 17.2793H48.3789V17.2031C48.3594 16.5938 48.1855 16.0977 47.8574 15.7148C47.5293 15.332 47.0996 15.1406 46.5684 15.1406ZM54.4434 21C54.373 20.8008 54.3281 20.5059 54.3086 20.1152C54.0625 20.4355 53.748 20.6836 53.3652 20.8594C52.9863 21.0312 52.584 21.1172 52.1582 21.1172C51.5488 21.1172 51.0547 20.9473 50.6758 20.6074C50.3008 20.2676 50.1133 19.8379 50.1133 19.3184C50.1133 18.7012 50.3691 18.2129 50.8809 17.8535C51.3965 17.4941 52.1133 17.3145 53.0312 17.3145H54.3027V16.5938C54.3027 16.1406 54.1621 15.7852 53.8809 15.5273C53.6035 15.2656 53.1973 15.1348 52.6621 15.1348C52.1738 15.1348 51.7695 15.2598 51.4492 15.5098C51.1289 15.7598 50.9688 16.0605 50.9688 16.4121L50.2656 16.4062C50.2656 15.9023 50.5 15.4668 50.9688 15.0996C51.4375 14.7285 52.0137 14.543 52.6973 14.543C53.4043 14.543 53.9609 14.7207 54.3672 15.0762C54.7773 15.4277 54.9883 15.9199 55 16.5527V19.5527C55 20.166 55.0645 20.625 55.1934 20.9297V21H54.4434ZM52.2402 20.4961C52.709 20.4961 53.127 20.3828 53.4941 20.1562C53.8652 19.9297 54.1348 19.627 54.3027 19.248V17.8535H53.0488C52.3496 17.8613 51.8027 17.9902 51.4082 18.2402C51.0137 18.4863 50.8164 18.8262 50.8164 19.2598C50.8164 19.6152 50.9473 19.9102 51.209 20.1445C51.4746 20.3789 51.8184 20.4961 52.2402 20.4961ZM59.8047 15.2578C59.6562 15.2305 59.498 15.2168 59.3301 15.2168C58.8926 15.2168 58.5215 15.3398 58.2168 15.5859C57.916 15.8281 57.7012 16.1816 57.5723 16.6465V21H56.875V14.6602H57.5605L57.5723 15.668C57.9434 14.918 58.5391 14.543 59.3594 14.543C59.5547 14.543 59.709 14.5684 59.8223 14.6191L59.8047 15.2578ZM61.5859 14.6602L61.6094 15.7441C61.8477 15.3535 62.1445 15.0566 62.5 14.8535C62.8555 14.6465 63.248 14.543 63.6777 14.543C64.3574 14.543 64.8633 14.7344 65.1953 15.1172C65.5273 15.5 65.6953 16.0742 65.6992 16.8398V21H65.002V16.834C64.998 16.2676 64.877 15.8457 64.6387 15.5684C64.4043 15.291 64.0273 15.1523 63.5078 15.1523C63.0742 15.1523 62.6895 15.2891 62.3535 15.5625C62.0215 15.832 61.7754 16.1973 61.6152 16.6582V21H60.918V14.6602H61.5859ZM68.3008 21H67.5977V14.6602H68.3008V21ZM67.4746 12.8262C67.4746 12.6934 67.5176 12.582 67.6035 12.4922C67.6895 12.3984 67.8066 12.3516 67.9551 12.3516C68.1035 12.3516 68.2207 12.3984 68.3066 12.4922C68.3965 12.582 68.4414 12.6934 68.4414 12.8262C68.4414 12.959 68.3965 13.0703 68.3066 13.1602C68.2207 13.25 68.1035 13.2949 67.9551 13.2949C67.8066 13.2949 67.6895 13.25 67.6035 13.1602C67.5176 13.0703 67.4746 12.959 67.4746 12.8262ZM70.8789 14.6602L70.9023 15.7441C71.1406 15.3535 71.4375 15.0566 71.793 14.8535C72.1484 14.6465 72.541 14.543 72.9707 14.543C73.6504 14.543 74.1562 14.7344 74.4883 15.1172C74.8203 15.5 74.9883 16.0742 74.9922 16.8398V21H74.2949V16.834C74.291 16.2676 74.1699 15.8457 73.9316 15.5684C73.6973 15.291 73.3203 15.1523 72.8008 15.1523C72.3672 15.1523 71.9824 15.2891 71.6465 15.5625C71.3145 15.832 71.0684 16.1973 70.9082 16.6582V21H70.2109V14.6602H70.8789ZM76.5273 17.7715C76.5273 16.7793 76.7461 15.9941 77.1836 15.416C77.625 14.834 78.2227 14.543 78.9766 14.543C79.8398 14.543 80.4961 14.8867 80.9453 15.5742L80.9805 14.6602H81.6367V20.8711C81.6367 21.6875 81.4082 22.334 80.9512 22.8105C80.4941 23.2871 79.875 23.5254 79.0938 23.5254C78.6523 23.5254 78.2305 23.4258 77.8281 23.2266C77.4297 23.0312 77.1152 22.7695 76.8848 22.4414L77.2773 22.0195C77.7734 22.6289 78.3633 22.9336 79.0469 22.9336C79.6328 22.9336 80.0898 22.7598 80.418 22.4121C80.7461 22.0684 80.916 21.5898 80.9277 20.9766V20.1797C80.4785 20.8047 79.8242 21.1172 78.9648 21.1172C78.2305 21.1172 77.6406 20.8242 77.1953 20.2383C76.75 19.6523 76.5273 18.8613 76.5273 17.8652V17.7715ZM77.2363 17.8945C77.2363 18.7031 77.3984 19.3418 77.7227 19.8105C78.0469 20.2754 78.5039 20.5078 79.0938 20.5078C79.957 20.5078 80.5684 20.1211 80.9277 19.3477V16.4004C80.7637 15.9941 80.5273 15.6855 80.2188 15.4746C79.9102 15.2598 79.5391 15.1523 79.1055 15.1523C78.5156 15.1523 78.0566 15.3848 77.7285 15.8496C77.4004 16.3105 77.2363 16.9922 77.2363 17.8945ZM92.5879 18.3398C92.4902 19.2383 92.168 19.9258 91.6211 20.4023C91.0781 20.8789 90.3535 21.1172 89.4473 21.1172C88.8145 21.1172 88.2539 20.959 87.7656 20.6426C87.2812 20.3262 86.9062 19.8789 86.6406 19.3008C86.375 18.7188 86.2402 18.0547 86.2363 17.3086V16.2012C86.2363 15.4434 86.3691 14.7715 86.6348 14.1855C86.9004 13.5996 87.2812 13.1484 87.7773 12.832C88.2773 12.5117 88.8516 12.3516 89.5 12.3516C90.4141 12.3516 91.1348 12.5996 91.6621 13.0957C92.1934 13.5879 92.502 14.2695 92.5879 15.1406H91.8613C91.6816 13.6914 90.8945 12.9668 89.5 12.9668C88.7266 12.9668 88.1094 13.2559 87.6484 13.834C87.1914 14.4121 86.9629 15.2109 86.9629 16.2305V17.2734C86.9629 18.2578 87.1855 19.043 87.6309 19.6289C88.0801 20.2148 88.6855 20.5078 89.4473 20.5078C90.2012 20.5078 90.7695 20.3281 91.1523 19.9688C91.5352 19.6055 91.7715 19.0625 91.8613 18.3398H92.5879ZM96.6309 21.1172C96.0918 21.1172 95.6035 20.9844 95.166 20.7188C94.7324 20.4531 94.3945 20.084 94.1523 19.6113C93.9102 19.1348 93.7891 18.6016 93.7891 18.0117V17.7598C93.7891 17.1504 93.9062 16.6016 94.1406 16.1133C94.3789 15.625 94.709 15.2422 95.1309 14.9648C95.5527 14.6836 96.0098 14.543 96.502 14.543C97.2715 14.543 97.8809 14.8066 98.3301 15.334C98.7832 15.8574 99.0098 16.5742 99.0098 17.4844V17.877H94.4863V18.0117C94.4863 18.7305 94.6914 19.3301 95.1016 19.8105C95.5156 20.2871 96.0352 20.5254 96.6602 20.5254C97.0352 20.5254 97.3652 20.457 97.6504 20.3203C97.9395 20.1836 98.2012 19.9648 98.4355 19.6641L98.875 19.998C98.3594 20.7441 97.6113 21.1172 96.6309 21.1172ZM96.502 15.1406C95.9746 15.1406 95.5293 15.334 95.166 15.7207C94.8066 16.1074 94.5879 16.627 94.5098 17.2793H98.3125V17.2031C98.293 16.5938 98.1191 16.0977 97.791 15.7148C97.4629 15.332 97.0332 15.1406 96.502 15.1406ZM101.043 14.6602L101.066 15.7441C101.305 15.3535 101.602 15.0566 101.957 14.8535C102.312 14.6465 102.705 14.543 103.135 14.543C103.814 14.543 104.32 14.7344 104.652 15.1172C104.984 15.5 105.152 16.0742 105.156 16.8398V21H104.459V16.834C104.455 16.2676 104.334 15.8457 104.096 15.5684C103.861 15.291 103.484 15.1523 102.965 15.1523C102.531 15.1523 102.146 15.2891 101.811 15.5625C101.479 15.832 101.232 16.1973 101.072 16.6582V21H100.375V14.6602H101.043ZM108.062 13.0371V14.6602H109.375V15.2344H108.062V19.459C108.062 19.8105 108.125 20.0723 108.25 20.2441C108.379 20.416 108.592 20.502 108.889 20.502C109.006 20.502 109.195 20.4824 109.457 20.4434L109.486 21.0176C109.303 21.084 109.053 21.1172 108.736 21.1172C108.256 21.1172 107.906 20.9785 107.688 20.7012C107.469 20.4199 107.359 20.0078 107.359 19.4648V15.2344H106.193V14.6602H107.359V13.0371H108.062ZM113.283 21.1172C112.744 21.1172 112.256 20.9844 111.818 20.7188C111.385 20.4531 111.047 20.084 110.805 19.6113C110.562 19.1348 110.441 18.6016 110.441 18.0117V17.7598C110.441 17.1504 110.559 16.6016 110.793 16.1133C111.031 15.625 111.361 15.2422 111.783 14.9648C112.205 14.6836 112.662 14.543 113.154 14.543C113.924 14.543 114.533 14.8066 114.982 15.334C115.436 15.8574 115.662 16.5742 115.662 17.4844V17.877H111.139V18.0117C111.139 18.7305 111.344 19.3301 111.754 19.8105C112.168 20.2871 112.688 20.5254 113.312 20.5254C113.688 20.5254 114.018 20.457 114.303 20.3203C114.592 20.1836 114.854 19.9648 115.088 19.6641L115.527 19.998C115.012 20.7441 114.264 21.1172 113.283 21.1172ZM113.154 15.1406C112.627 15.1406 112.182 15.334 111.818 15.7207C111.459 16.1074 111.24 16.627 111.162 17.2793H114.965V17.2031C114.945 16.5938 114.771 16.0977 114.443 15.7148C114.115 15.332 113.686 15.1406 113.154 15.1406ZM119.957 15.2578C119.809 15.2305 119.65 15.2168 119.482 15.2168C119.045 15.2168 118.674 15.3398 118.369 15.5859C118.068 15.8281 117.854 16.1816 117.725 16.6465V21H117.027V14.6602H117.713L117.725 15.668C118.096 14.918 118.691 14.543 119.512 14.543C119.707 14.543 119.861 14.5684 119.975 14.6191L119.957 15.2578Z" fill="black" fill-opacity="0.75"/>
<path d="M15.4424 33.8771C15.004 33.7841 14.6718 33.5914 14.3596 33.2394C14.054 32.9072 13.9278 32.6614 13.8747 32.3027C13.8082 31.8576 13.7551 31.8045 13.3765 31.758C12.9712 31.7048 12.5594 31.479 12.2339 31.1203C11.6825 30.5091 11.656 30.3098 11.656 27.0615V24.4242L11.1444 24.1253C5.70392 20.9567 4.7407 13.5963 9.17151 9.16552C12.8982 5.43886 18.9166 5.43886 22.6433 9.16552C26.8947 13.4103 26.1906 20.4452 21.1885 23.7732C20.8962 23.9659 20.5441 24.1785 20.4113 24.2449L20.1589 24.3645V26.995C20.1589 29.7186 20.1256 30.1969 19.8865 30.6686C19.5942 31.2332 18.9631 31.6849 18.3653 31.758C18.0132 31.7978 18.0132 31.8045 17.9335 32.2761C17.8006 33.06 17.1231 33.711 16.2528 33.897C15.8476 33.9834 15.914 33.9834 15.4424 33.8771ZM18.0331 28.6558V27.5929H15.9074H13.7817V28.6558V29.7186H15.9074H18.0331V28.6558ZM18.0331 24.3047V23.1488L18.817 22.7502C20.1522 22.066 20.9427 21.4682 21.6801 20.5714C22.8625 19.1431 23.4139 17.4691 23.3275 15.5626C23.2146 12.9121 21.7531 10.607 19.3617 9.29838C18.7971 8.99281 17.6744 8.62745 16.9769 8.52116C16.1266 8.40159 14.7648 8.47466 13.981 8.69388C13.2502 8.89317 12.0545 9.45781 11.5231 9.84974C11.0116 10.235 10.3008 10.9392 9.91551 11.4507C9.45051 12.0552 8.89915 13.2177 8.69322 14.0082C8.48065 14.8319 8.40758 16.1073 8.53379 16.9576C8.83937 19.0634 10.0085 20.8836 11.842 22.0992C12.0479 22.2387 12.5727 22.531 13.0045 22.7502L13.7817 23.1488V24.3047V25.4672H15.9074H18.0331V24.3047Z" fill="#F97373"/>
<path d="M11.935 20.9434C11.9482 20.9035 12.8517 19.7543 13.9478 18.3859L15.934 15.9014H17.9933C19.1226 15.9014 20.026 15.928 19.9928 15.9546C19.8134 16.114 11.915 21.0032 11.935 20.9434Z" fill="#F97373"/>
<path d="M11.8287 15.835C11.9416 15.7221 19.8533 10.793 19.8798 10.8196C19.8931 10.8329 18.9963 11.9755 17.887 13.3705L15.8742 15.8948H13.8215C12.4398 15.9014 11.7822 15.8815 11.8287 15.835Z" fill="#F97373"/>
<path d="M2.46884 24.2183C1.91083 23.8463 1.81783 23.0425 2.28948 22.6174C2.48876 22.4314 5.18578 20.8703 5.51128 20.7507C5.94307 20.5913 6.54757 20.8836 6.74021 21.3486C6.85314 21.6276 6.78671 22.1059 6.60071 22.3517C6.50107 22.4779 5.87 22.8831 4.88685 23.4477C3.44534 24.2715 3.30584 24.3379 2.99362 24.3379C2.78105 24.3379 2.58841 24.2914 2.46884 24.2183Z" fill="#F97373"/>
<path d="M26.9545 23.4876C25.3934 22.5842 25.2473 22.4845 25.1012 22.1989C24.6959 21.4217 25.5197 20.4651 26.3367 20.764C26.6822 20.8902 29.3128 22.4114 29.5253 22.6174C29.9239 22.9827 29.9106 23.6072 29.4988 24.0589C29.2928 24.2781 29.2397 24.298 28.8544 24.318L28.4292 24.3445L26.9545 23.4876Z" fill="#F97373"/>
<path d="M0.794827 16.9045C-0.108606 16.6786 -0.287964 15.5095 0.495897 15.0179C0.715112 14.8784 0.814755 14.8718 2.46883 14.8518C4.38199 14.8253 4.62777 14.8585 4.93999 15.1773C5.43156 15.6689 5.29206 16.4661 4.66099 16.8181C4.47499 16.9178 4.21591 16.9311 2.72126 16.9444C1.77133 16.951 0.907756 16.9311 0.794827 16.9045Z" fill="#F97373"/>
<path d="M27.3664 16.9045C26.463 16.6786 26.2836 15.5095 27.0675 15.0179C27.2867 14.8784 27.3863 14.8718 29.0404 14.8518C30.9536 14.8253 31.1993 14.8585 31.5116 15.1773C32.0031 15.6689 31.8636 16.4661 31.2326 16.8181C31.0466 16.9178 30.7875 16.9311 29.2928 16.9444C28.3429 16.951 27.4793 16.9311 27.3664 16.9045Z" fill="#F97373"/>
<path d="M5.47143 11.0255C5.15921 10.9259 2.52198 9.40467 2.28948 9.18545C1.89755 8.82674 1.89755 8.15581 2.2762 7.74395C2.51534 7.49152 2.96041 7.35866 3.26599 7.45166C3.5317 7.53137 6.242 9.08581 6.46122 9.2851C6.72029 9.5176 6.82658 9.77667 6.79336 10.1221C6.72693 10.7997 6.1025 11.2248 5.47143 11.0255Z" fill="#F97373"/>
<path d="M25.606 11.0056C25.5529 10.9857 25.4333 10.906 25.3536 10.8263C24.8886 10.4077 24.8886 9.69696 25.3536 9.2851C25.5927 9.07253 28.2898 7.53138 28.5555 7.45831C29.067 7.31881 29.6449 7.66424 29.7911 8.18902C29.8774 8.51453 29.7711 8.87988 29.5054 9.15889C29.3858 9.27846 28.6485 9.74346 27.8646 10.1952C26.5692 10.9325 26.4032 11.0123 26.071 11.0322C25.8717 11.0388 25.6592 11.0322 25.606 11.0056Z" fill="#F97373"/>
<path d="M9.56345 6.67445C9.45716 6.60802 9.31766 6.49509 9.25787 6.42866C9.07851 6.21609 7.53072 3.48586 7.45765 3.26C7.36465 2.95443 7.49751 2.50936 7.74994 2.27021C8.16179 1.89157 8.83273 1.89157 9.19144 2.2835C9.39737 2.49607 10.9186 5.12666 11.0448 5.46544C11.3371 6.28252 10.3008 7.13281 9.56345 6.67445Z" fill="#F97373"/>
<path d="M21.2483 6.67444C20.8165 6.40872 20.6039 5.9105 20.7567 5.50529C20.8763 5.17979 22.4374 2.48277 22.6234 2.28349C23.3142 1.5262 24.6561 2.30342 24.3239 3.26663C24.2309 3.53235 22.9555 5.80422 22.6101 6.30908C22.2912 6.77408 21.6867 6.94015 21.2483 6.67444Z" fill="#F97373"/>
<path d="M15.3494 5.08015C15.2431 5.00708 15.097 4.85429 15.0172 4.72808C14.8844 4.52215 14.8777 4.42915 14.8777 2.61564C14.8777 0.841986 14.8844 0.709128 15.0106 0.503199C15.4158 -0.167733 16.399 -0.167733 16.8042 0.503199C16.9304 0.709128 16.937 0.841986 16.937 2.58242C16.937 4.33615 16.9304 4.45572 16.7975 4.67493C16.5053 5.17979 15.8011 5.37908 15.3494 5.08015Z" fill="#F97373"/>
</svg>
